<?xml version="1.0" standalone="no"?>
<!DOCTYPE svg PUBLIC "-//W3C//DTD SVG 20010904//EN"
 "http://www.w3.org/TR/2001/REC-SVG-20010904/DTD/svg10.dtd">
<svg version="1.0" xmlns="http://www.w3.org/2000/svg"
 width="512.000000pt" height="512.000000pt" viewBox="0 0 512.000000 512.000000"
 preserveAspectRatio="xMidYMid meet">

<g transform="translate(0.000000,512.000000) scale(0.100000,-0.100000)"
fill="#000000" stroke="none">
<path d="M1175 4128 c8 -20 37 -59 64 -86 49 -49 106 -153 134 -243 7 -25 24
-49 42 -62 57 -39 97 -82 132 -144 21 -38 41 -63 51 -63 13 0 14 -2 4 -9 -18
-11 7 -21 52 -21 31 0 31 1 28 42 -4 33 -7 39 -16 27 -16 -20 -48 -44 -44 -33
4 11 -70 134 -93 154 -17 15 -187 237 -262 342 -20 29 -53 71 -72 93 l-35 40
15 -37z"/>
<path d="M2807 3283 c-4 -3 40 -54 96 -113 135 -139 244 -305 314 -480 9 -23
12 -21 47 47 63 119 175 214 294 249 l54 16 -23 24 c-30 32 -152 115 -216 148
-45 22 -61 25 -106 20 -77 -9 -157 11 -226 57 -57 38 -61 39 -143 39 -47 0
-88 -3 -91 -7z"/>
<path d="M1432 3240 c-182 -26 -320 -101 -375 -204 -20 -37 -22 -58 -25 -234
l-4 -194 60 -62 c98 -101 142 -212 142 -353 l0 -83 38 -23 c56 -36 120 -111
150 -175 22 -48 26 -72 26 -152 1 -85 -2 -100 -27 -148 -53 -101 -149 -170
-249 -180 -62 -6 -88 14 -88 68 0 44 18 62 80 79 61 18 96 45 120 91 24 46 26
126 6 174 -34 81 -138 156 -218 156 l-38 0 -2 -422 c0 -233 -4 -401 -7 -375
l-6 48 -52 -38 c-29 -21 -53 -41 -53 -44 0 -7 93 -49 109 -49 8 0 11 -129 11
-417 0 -383 2 -421 19 -458 42 -92 139 -167 275 -212 71 -23 98 -27 221 -27
120 -1 151 2 215 22 141 44 255 125 300 211 18 37 20 59 20 241 l0 200 24 0
c12 0 37 5 54 11 28 9 30 13 22 35 -6 14 -12 39 -16 57 -7 40 -16 50 -45 45
-21 -3 -25 -10 -30 -58 -4 -30 -6 226 -5 570 2 616 2 626 24 691 107 320 449
437 712 243 68 -50 141 -144 176 -226 33 -78 44 -161 44 -333 1 -174 5 -174
64 6 55 167 69 273 63 468 -7 225 -41 362 -138 555 -84 166 -233 347 -371 451
-68 51 -64 51 -203 -15 -172 -81 -325 -215 -403 -352 -15 -27 -30 -48 -34 -48
-5 0 -8 47 -8 104 0 137 -2 141 -48 117 -74 -38 -202 -65 -202 -43 0 4 12 25
26 47 l25 40 -39 -44 c-40 -43 -40 -44 -52 -21 -13 24 -10 200 4 231 6 13 -1
18 -31 23 -72 12 -198 15 -261 6z"/>
<path d="M3730 2848 c0 -156 -126 -341 -282 -412 -40 -19 -90 -37 -111 -40
l-37 -7 7 -42 c15 -82 8 -386 -10 -480 -38 -189 -112 -373 -219 -539 l-49 -77
3 -488 c3 -486 3 -488 26 -535 45 -91 153 -164 302 -205 92 -25 318 -25 415 1
143 38 252 112 295 201 15 31 20 62 20 121 l0 80 73 50 c105 71 274 242 342
347 152 234 212 456 202 741 -7 182 -30 292 -72 336 l-28 29 -34 -47 c-18 -26
-38 -47 -43 -47 -6 0 -15 -7 -20 -15 -5 -8 -10 -10 -10 -5 0 6 -7 1 -15 -9
-11 -14 -15 -16 -15 -5 0 12 -2 12 -10 -1 -9 -13 -10 -13 -10 0 0 13 -2 13 -9
1 -5 -8 -20 -16 -33 -18 -13 -2 -24 -8 -26 -13 -2 -4 -14 -6 -28 -4 -13 2 -24
1 -24 -4 0 -4 -18 -9 -40 -10 -36 -3 -40 0 -41 20 0 13 -7 39 -15 58 -13 32
-14 32 -8 5 4 -16 10 -48 15 -70 4 -22 8 -85 8 -140 l-1 -100 -13 78 c-7 43
-16 116 -20 163 -4 46 -9 84 -12 84 -2 0 -26 -11 -53 -25 -27 -14 -51 -25 -53
-25 -2 0 -7 64 -10 143 -13 302 -102 573 -267 821 -39 58 -75 108 -80 111 -6
4 -10 -8 -10 -27z"/>
<path d="M2414 1746 c-3 -8 2 -39 11 -68 59 -181 208 -308 396 -339 l72 -12
28 34 c32 39 54 77 48 83 -2 2 -123 72 -269 156 -146 84 -268 155 -273 157 -4
2 -10 -3 -13 -11z"/>
</g>
</svg>
