<?xml version="1.0" standalone="no"?>
<!DOCTYPE svg PUBLIC "-//W3C//DTD SVG 20010904//EN"
 "http://www.w3.org/TR/2001/REC-SVG-20010904/DTD/svg10.dtd">
<svg version="1.0" xmlns="http://www.w3.org/2000/svg"
 width="796.000000pt" height="1263.000000pt" viewBox="0 0 796.000000 1263.000000"
 preserveAspectRatio="xMidYMid meet">
<metadata>
Created by potrace 1.16, written by Peter Selinger 2001-2019
</metadata>
<g transform="translate(0.000000,1263.000000) scale(0.100000,-0.100000)"
fill="#000000" stroke="none">
<path d="M0 6315 l0 -6315 3980 0 3980 0 0 6315 0 6315 -3980 0 -3980 0 0
-6315z m4777 4373 c2 -18 9 -34 14 -36 5 -2 9 -8 9 -13 0 -6 -4 -7 -10 -4 -17
11 -11 -1 14 -24 l23 -22 -5 27 c-3 19 -1 25 7 20 14 -9 15 -816 1 -987 -17
-212 -80 -351 -239 -532 -44 -50 -238 -253 -307 -321 -51 -50 -51 -52 -58
-126 -3 -41 -8 -160 -11 -265 -3 -104 -8 -217 -10 -250 -7 -80 -18 -284 -18
-313 1 -17 -2 -20 -11 -13 -9 8 -12 -4 -14 -49 -1 -36 3 -60 9 -60 6 0 7 -5 4
-10 -4 -6 -10 -8 -15 -5 -5 3 -11 -5 -13 -17 -7 -29 3 188 9 222 3 14 7 156 9
315 2 160 5 346 6 415 1 69 6 134 12 145 5 11 72 84 148 162 145 149 229 249
308 367 117 173 120 200 121 950 0 258 3 466 6 463 3 -3 8 -20 11 -39z m-206
-235 c1 -48 4 -103 15 -273 14 -210 6 -742 -11 -770 -2 -3 0 -12 4 -19 6 -10
16 -3 35 25 14 21 26 34 26 28 0 -19 -113 -149 -260 -299 -172 -175 -246 -263
-273 -324 -18 -40 -20 -74 -24 -370 -2 -206 -11 -413 -24 -561 -16 -185 -20
-314 -20 -610 1 -519 14 -980 32 -1170 13 -144 11 -333 -3 -349 -10 -11 -10
-13 0 -7 8 5 12 -1 12 -18 0 -14 -3 -26 -8 -26 -4 0 -15 -22 -25 -49 -23 -66
-60 -81 -221 -86 -120 -5 -170 0 -161 15 3 4 -1 8 -8 7 -33 -1 -47 4 -47 18 0
9 -6 12 -15 9 -8 -4 -15 -1 -15 6 0 10 -3 10 -15 0 -10 -9 -15 -9 -15 -1 0 6
-7 11 -15 11 -8 0 -15 7 -15 15 0 17 -38 35 -58 27 -7 -2 -12 -1 -10 4 2 5 0
9 -3 9 -3 0 -14 8 -24 18 -9 10 -23 16 -31 13 -7 -3 -18 2 -24 9 -7 8 -16 13
-20 10 -5 -3 -11 -1 -15 5 -3 5 -1 10 6 10 7 0 10 3 7 6 -10 10 -120 -29 -178
-62 -61 -36 -89 -63 -105 -102 l-11 -26 -21 35 c-69 113 -70 244 -3 432 31 85
39 121 31 128 -6 5 -9 6 -6 3 2 -4 -12 -25 -31 -48 -19 -22 -52 -76 -72 -118
-20 -42 -41 -77 -45 -77 -4 -1 -18 -12 -30 -25 -112 -120 -162 -180 -161 -192
1 -8 -2 -12 -6 -9 -5 3 -25 -16 -47 -41 -21 -26 -51 -61 -68 -78 -46 -49 -85
-95 -85 -101 0 -3 12 -5 28 -5 40 1 157 46 154 60 -1 6 2 9 8 5 6 -4 58 12
115 36 l104 43 -15 34 c-8 19 -14 49 -13 66 1 27 2 26 10 -12 19 -98 99 -200
192 -243 23 -11 57 -31 76 -45 19 -13 44 -24 56 -24 22 0 93 -67 87 -83 -1 -5
1 -6 6 -3 4 2 27 -9 51 -25 24 -16 50 -29 58 -29 7 0 13 -4 13 -9 0 -5 9 -7
20 -4 12 3 20 0 20 -6 0 -7 -5 -9 -12 -5 -7 4 -8 3 -4 -5 6 -9 11 -9 21 -1 19
16 56 3 48 -17 -5 -13 -3 -13 14 -3 15 10 25 9 50 -3 29 -16 40 -43 46 -119 1
-10 5 -18 10 -18 4 0 6 -4 3 -9 -4 -5 -3 -11 1 -13 5 -1 25 -37 46 -78 20 -41
53 -93 73 -114 30 -34 37 -37 49 -25 13 13 25 56 41 144 3 17 9 43 14 59 6 15
7 32 5 36 -3 5 -2 11 3 14 5 3 9 0 9 -7 13 -194 14 -317 5 -333 -6 -10 -12
-14 -12 -8 0 6 -28 17 -62 23 -35 7 -88 19 -118 29 -68 20 -201 19 -297 -3
-37 -9 -84 -18 -103 -21 -19 -3 -42 -7 -50 -10 -8 -3 -33 -9 -55 -14 -22 -4
-83 -17 -136 -28 -80 -18 -119 -20 -235 -16 -146 5 -144 5 -285 76 -46 23 -72
23 -120 0 -34 -15 -59 -46 -59 -72 0 -8 44 -39 132 -93 19 -12 28 -13 30 -5 3
9 50 3 169 -20 346 -67 607 -105 943 -136 l229 -21 3 -35 c2 -19 8 -66 13
-105 6 -38 12 -112 15 -164 l5 -93 -107 7 c-200 13 -564 71 -659 105 l-28 10
25 -20 c17 -13 20 -20 10 -20 -8 -1 0 -9 18 -18 17 -10 47 -38 65 -64 17 -25
51 -72 73 -104 53 -75 157 -214 178 -237 23 -25 21 -27 -34 -27 -36 0 -50 -4
-50 -14 0 -23 379 -86 523 -86 l57 0 -1 -367 c-1 -203 -4 -393 -7 -423 -7 -51
-9 -55 -37 -59 -16 -2 -167 -4 -335 -5 -265 -1 -315 1 -380 17 -41 11 -84 20
-95 22 -67 11 -220 77 -287 123 -41 28 -75 58 -185 163 -53 51 -103 106 -103
114 0 6 -27 38 -67 81 -18 19 -30 34 -27 34 9 0 -22 46 -79 117 -28 34 -55 60
-60 56 -6 -3 -8 -2 -4 3 3 5 -6 23 -20 39 l-25 30 7 -35 c4 -19 20 -58 36 -87
16 -28 52 -98 80 -154 51 -102 87 -161 102 -167 4 -2 7 -7 7 -11 0 -13 -676
661 -749 747 -226 266 -345 456 -450 720 -73 183 -114 343 -184 717 -153 812
-185 1073 -194 1560 -5 284 -2 365 16 580 45 529 73 786 95 880 8 33 37 123
64 201 94 267 122 434 122 737 0 110 6 240 15 310 17 130 32 208 34 170 1 -12
5 -24 10 -27 5 -4 7 3 4 14 -4 14 -1 20 8 18 7 -2 25 20 40 52 27 54 27 54 34
27 5 -18 11 -25 17 -19 6 6 5 18 -3 33 -11 22 -11 23 4 10 14 -11 18 -11 23 3
3 9 12 16 20 16 8 0 14 7 14 15 0 11 12 15 45 15 25 0 61 7 81 15 31 13 34 17
24 35 -6 11 -28 32 -50 46 -21 14 -41 32 -44 40 -3 9 -1 12 4 9 6 -4 10 5 10
20 0 14 4 24 8 21 4 -2 8 16 8 42 0 79 8 162 16 162 5 0 8 15 8 33 0 61 7 62
125 22 59 -19 141 -40 184 -46 42 -6 90 -12 106 -15 22 -3 34 -12 43 -34 43
-96 237 -283 347 -334 59 -27 146 -57 180 -62 17 -3 43 -9 59 -14 57 -19 278
-7 356 20 14 4 58 18 98 30 39 13 72 26 72 30 0 4 12 10 28 13 15 4 63 30 107
59 89 58 315 280 346 339 l18 36 198 6 c243 7 390 36 597 121 49 20 94 36 101
36 7 0 18 7 25 15 20 24 30 17 31 -22z m527 -1585 c-23 -29 -87 -95 -141 -147
-386 -375 -422 -416 -476 -541 -48 -110 -63 -141 -68 -136 -9 9 38 219 58 257
28 57 156 191 269 284 25 20 99 89 164 153 66 64 121 116 123 114 2 -1 15 10
29 25 24 27 25 27 13 3 -11 -23 -10 -22 27 7 21 18 41 32 42 33 2 0 -16 -23
-40 -52z m674 -447 c2 -6 37 -14 78 -18 63 -8 41 -9 -132 -11 -217 -1 -322
-11 -478 -42 -100 -20 -135 -20 -51 0 28 7 51 15 51 20 0 4 12 6 28 3 23 -3
24 -2 7 7 -15 7 -11 8 19 3 28 -4 37 -3 32 6 -4 6 -1 11 6 11 7 1 51 7 98 14
99 16 337 20 342 7z m-203 -651 c221 -62 362 -275 349 -527 -6 -104 -34 -176
-103 -265 -60 -77 -181 -157 -261 -173 -29 -5 -29 -5 -4 6 102 45 153 72 143
76 -7 3 -13 9 -13 15 0 6 6 6 15 -2 10 -9 15 -9 15 -1 0 6 6 11 14 11 22 0
112 107 142 168 15 32 27 72 28 89 1 18 5 33 10 33 18 0 -2 192 -27 262 -34
93 -116 206 -140 191 -6 -3 -7 -1 -3 5 10 16 -56 62 -132 90 -79 29 -230 41
-309 24 -54 -12 -141 -50 -183 -79 -24 -17 -24 -17 -11 0 20 25 99 64 164 82
79 21 219 19 306 -5z m-5122 -115 c85 -43 169 -150 198 -252 8 -27 41 -136 75
-243 52 -165 63 -212 70 -305 14 -183 15 -183 -61 -10 -113 259 -140 316 -187
397 -124 211 -219 269 -269 163 -9 -19 -20 -35 -24 -35 -23 0 -39 -242 -24
-360 3 -19 7 -51 10 -70 10 -81 24 -177 30 -205 19 -91 27 -126 47 -185 11
-36 27 -80 35 -99 8 -18 23 -56 34 -85 l19 -51 -8 45 c-4 25 -7 149 -7 275 0
198 3 236 19 275 22 56 51 87 96 106 19 8 38 20 42 27 5 8 8 7 8 -5 0 -10 -7
-18 -15 -18 -8 0 -14 -6 -13 -12 2 -8 -6 -12 -19 -10 -17 2 -21 -1 -17 -12 3
-9 10 -16 14 -16 4 0 11 -15 15 -32 4 -18 9 -36 10 -40 1 -5 3 -58 4 -119 1
-70 5 -108 11 -104 6 3 7 -1 4 -10 -4 -8 -1 -22 6 -30 6 -8 9 -19 6 -24 -4 -5
-7 -56 -7 -113 0 -84 5 -118 26 -185 43 -139 144 -261 228 -277 34 -6 37 -5
37 15 0 49 10 6 34 -141 13 -85 39 -239 56 -342 33 -191 34 -226 2 -213 -9 4
-23 10 -31 13 -9 3 -12 1 -8 -5 4 -7 -7 -13 -29 -17 -40 -8 -118 23 -171 68
-66 56 -154 242 -238 506 -67 208 -108 333 -164 493 -87 249 -134 507 -134
742 -1 243 36 380 129 472 62 62 84 66 161 28z m5060 -101 c106 -52 175 -164
174 -284 0 -81 -22 -140 -76 -206 -124 -151 -379 -115 -480 67 -27 48 -30 63
-30 139 0 67 5 94 22 130 77 156 250 225 390 154z m1018 -661 c-9 -32 -30 -87
-46 -122 -18 -39 -27 -72 -23 -84 5 -15 3 -19 -8 -14 -10 3 -14 -1 -13 -16 2
-30 -25 -69 -42 -63 -8 3 -11 1 -8 -4 6 -10 -71 -86 -143 -142 -20 -15 -42
-31 -47 -36 -6 -4 -42 -27 -81 -50 -102 -61 -223 -108 -354 -137 -63 -15 -121
-30 -129 -34 -19 -10 -19 -5 -21 -423 -1 -275 -4 -368 -13 -372 -9 -3 -8 -7 3
-15 8 -6 10 -11 5 -11 -6 0 -11 -9 -12 -20 -1 -11 2 -20 6 -20 8 0 7 -27 -2
-50 -4 -8 -8 -42 -10 -75 -2 -33 -4 190 -5 496 l-2 555 98 19 c99 18 233 56
331 94 116 44 348 227 415 327 40 59 78 146 97 223 7 29 15 48 17 42 2 -6 -4
-36 -13 -68z m-1330 -643 c50 -5 138 -10 198 -10 l107 0 0 -32 c0 -18 -4 -28
-8 -23 -9 13 -44 16 -36 3 3 -5 -5 -6 -18 -3 -12 2 -40 6 -60 8 -21 2 -41 7
-45 10 -10 11 -25 8 -18 -4 5 -7 -4 -9 -27 -5 -18 3 -54 8 -80 11 -48 6 -63
20 -30 28 14 4 13 5 -3 6 -12 0 -26 -4 -33 -11 -9 -9 -15 -9 -24 0 -7 7 -8 12
-2 13 5 0 -13 7 -41 14 -47 13 -47 14 -10 9 22 -2 81 -9 130 -14z m-3645
-2437 c0 -47 3 -53 28 -65 15 -8 26 -21 26 -31 -1 -13 2 -14 17 -7 14 8 17 7
13 -3 -3 -8 1 -19 9 -26 17 -13 50 -4 40 12 -3 5 -1 7 5 3 6 -3 9 -18 6 -31
-3 -18 0 -25 10 -25 10 0 13 6 9 16 -3 9 15 -6 40 -33 25 -26 42 -49 37 -51
-5 -2 4 -16 20 -32 17 -16 30 -33 30 -38 0 -22 189 -338 323 -540 107 -162
102 -156 192 -265 44 -54 89 -110 100 -124 57 -74 280 -301 429 -437 47 -43
83 -83 80 -88 -3 -4 -1 -7 4 -6 10 3 231 -194 383 -344 59 -57 119 -128 154
-183 74 -113 77 -119 40 -75 -127 152 -252 218 -540 286 -198 47 -493 169
-715 295 -127 72 -331 233 -470 370 -107 106 -237 277 -244 321 -5 33 -7 96
-26 728 -6 190 -12 369 -13 398 -2 30 0 47 4 40 5 -7 9 -36 9 -65z m3645 -223
c-3 -5 -1 -10 5 -10 16 0 -13 -49 -57 -95 -111 -117 -340 -274 -358 -245 -3 6
-15 10 -26 10 -28 0 -23 24 9 41 15 7 53 29 85 47 32 18 63 30 70 26 6 -4 9
-4 5 1 -7 8 44 46 58 44 4 0 10 3 13 8 3 5 23 19 44 32 20 12 37 27 37 32 0 6
5 7 10 4 6 -3 10 0 10 7 0 7 21 34 47 60 46 47 60 58 48 38z"/>
<path d="M1747 8414 c-125 -83 -299 -277 -359 -399 -42 -84 -104 -317 -91
-339 3 -5 1 -6 -5 -2 -7 4 -12 1 -12 -8 0 -22 17 -20 32 4 7 11 17 20 22 20 5
0 1 -9 -9 -20 -19 -21 -14 -50 8 -50 17 0 57 33 57 47 0 19 53 64 69 59 13 -5
13 -4 -1 6 -14 11 -14 13 8 30 13 11 29 16 35 12 8 -4 9 -3 5 4 -8 14 30 36
46 26 7 -5 8 -3 3 6 -6 10 -4 12 8 7 9 -3 17 -2 19 3 2 5 29 21 62 35 44 20
57 22 53 11 -4 -9 -1 -18 5 -22 7 -4 8 -3 4 4 -4 7 -2 12 4 12 6 0 9 4 5 9
-15 25 219 66 315 55 30 -4 75 -8 100 -10 25 -1 56 -5 70 -8 14 -2 30 -5 37
-5 7 -1 10 -8 7 -18 -4 -14 -3 -15 4 -5 11 16 72 3 110 -23 17 -12 22 -13 22
-3 0 9 2 10 8 2 4 -7 36 -15 72 -18 35 -4 66 -8 67 -10 2 -2 -70 -6 -159 -9
-253 -8 -349 -44 -528 -196 -25 -21 -37 -26 -43 -18 -6 8 -7 7 -4 -4 8 -25
-155 -225 -175 -213 -4 3 -5 -1 -2 -9 3 -8 -2 -20 -11 -27 -8 -7 -15 -17 -15
-23 0 -6 -6 -18 -14 -26 -7 -9 -17 -26 -20 -38 -6 -19 -3 -23 13 -23 12 0 21
6 21 13 0 6 5 4 11 -5 6 -11 22 -18 39 -18 41 0 143 34 180 60 28 20 33 21 48
7 25 -21 174 -69 185 -58 4 4 -16 18 -47 31 -81 32 -82 38 -30 98 48 54 47 67
-2 30 -26 -19 -25 -17 6 15 19 21 40 35 47 33 7 -3 15 0 19 6 4 7 3 8 -4 4 -7
-4 -12 -5 -12 -2 0 7 112 73 138 81 21 6 23 5 13 -13 -18 -34 -13 -138 8 -181
41 -80 127 -122 256 -124 85 -2 95 0 160 33 54 27 73 43 88 72 26 52 25 133
-2 187 l-22 43 23 -7 c67 -21 167 -82 210 -128 69 -73 69 -82 12 -131 -42 -36
-59 -43 -138 -59 -111 -21 -414 -33 -511 -19 -38 5 -72 6 -75 1 -3 -5 -16 -7
-28 -4 -12 2 -22 0 -22 -4 0 -11 76 -33 130 -38 25 -2 52 -6 60 -10 36 -14
233 5 460 45 55 10 140 47 140 61 0 6 6 11 13 11 7 0 28 11 47 25 l33 24 27
-19 c70 -50 30 60 -54 149 -22 24 -34 42 -26 39 99 -33 122 -39 128 -33 4 4
-3 14 -16 22 -12 9 -37 29 -55 45 l-32 30 50 -33 c28 -18 77 -59 110 -90 33
-31 67 -58 75 -59 29 -4 40 0 40 16 0 8 6 22 14 29 11 12 16 11 32 -8 35 -41
45 -68 59 -165 20 -141 24 -194 32 -422 4 -140 9 -196 15 -175 11 40 45 280
53 380 4 44 9 91 11 105 2 14 6 97 9 185 4 131 1 176 -14 247 -22 99 -44 171
-76 243 -12 28 -28 67 -34 87 -7 21 -16 40 -21 43 -5 3 -5 16 0 31 25 65 5
272 -33 339 -24 42 -53 61 -44 29 3 -11 8 -41 12 -69 l6 -50 -29 45 c-56 87
-145 150 -212 150 -33 0 -41 -15 -12 -24 10 -4 32 -20 48 -37 l29 -31 -45 26
c-59 34 -148 62 -235 75 -167 26 -440 41 -723 41 l-297 0 -68 -46z"/>
<path d="M2865 7093 c-16 -9 -46 -29 -66 -44 -20 -16 -42 -29 -48 -29 -7 0
-14 -7 -17 -15 -4 -8 -10 -12 -15 -9 -5 2 -19 -1 -31 -8 -13 -7 -25 -13 -28
-14 -3 0 -12 -3 -20 -7 -37 -15 -103 -27 -171 -32 -93 -7 -158 -13 -184 -19
-11 -2 -36 -5 -55 -7 -28 -1 -30 -3 -10 -6 14 -2 39 -8 56 -14 36 -11 52 -15
158 -33 44 -8 98 -12 120 -10 23 3 57 7 76 9 47 4 99 28 134 60 16 15 34 28
40 29 14 3 92 82 100 101 3 8 9 15 14 15 5 0 7 11 4 25 -5 29 -15 30 -57 8z"/>
<path d="M2158 5030 c-41 -38 -86 -91 -100 -117 -28 -53 -42 -119 -27 -128 5
-4 9 -16 9 -28 0 -16 3 -18 9 -9 6 11 10 10 15 -4 10 -25 27 -4 28 35 1 17 5
31 10 31 4 0 7 3 6 8 -2 11 54 126 64 130 4 2 8 10 8 17 0 7 4 15 8 17 4 2 20
25 35 52 50 89 33 89 -65 -4z"/>
<path d="M451 6210 c-1 -14 7 -42 18 -62 10 -20 21 -59 25 -87 13 -97 39 -138
124 -196 36 -24 45 -26 53 -14 12 19 4 39 -54 138 -56 97 -98 149 -114 144 -6
-2 -16 11 -23 29 -27 73 -29 76 -29 48z"/>
</g>
</svg>
